<?xml version="1.0" encoding="utf-8"?>
<!-- Generator: Adobe Illustrator 25.3.1, SVG Export Plug-In . SVG Version: 6.00 Build 0)  -->
<svg version="1.1" id="레이어_1" xmlns="http://www.w3.org/2000/svg" xmlns:xlink="http://www.w3.org/1999/xlink" x="0px"
	 y="0px" viewBox="0 0 150.7 40.3" style="enable-background:new 0 0 150.7 40.3;" xml:space="preserve">
<style type="text/css">
	.st0{fill:#0B5996;}
</style>
<path class="st0" d="M20.8,0C9.3,0,0,9,0,20.2s9.3,20.2,20.8,20.2s20.8-9,20.8-20.2S32.2,0,20.8,0z M31.4,27.4V16.7l-8.2-9.1V33
	c-0.6,0.2-1.1,0.3-1.7,0.4V9.5l-1.7,1.9l-0.1,22.2c-0.5,0-1,0.1-1.5,0.1h-0.1V13.3l-1.7,1.9l-0.1,18.4c-0.5-0.1-1-0.1-1.6-0.2V16.9
	l-1.7,1.9l-0.1,14.1C6.4,30.8,1.9,24.7,1.8,17.7c0.1-9,7.5-16.1,16.5-16c9-0.1,16.4,7,16.5,16C34.8,21.2,33.6,24.6,31.4,27.4z
	 M69.1,15.5h-4.3v2.8h4.3v13.8h2.8V8.3h-2.8V15.5z M59,8.5h-3.1c0,7.2,0.2,12.4-7.7,15l0.9,2.7c3.6-0.9,6.6-3.3,8.4-6.5
	c1.8,3.2,4.8,5.5,8.4,6.5l0.9-2.7L65.5,23C58.5,20.4,59,14.8,59,8.5z M95.3,32.1h2.8V8.2h-2.8V32.1z M75.7,25.7v2.6
	c3.7-0.1,15.2,0.4,18.7-0.5v-2.6C90.7,26,79.4,25.5,75.7,25.7z M91.7,11.8H77.5v2.3h14.2V11.8z M89.5,8.7h-9.7v2.4h9.7L89.5,8.7z
	 M150.7,28.4v-6.2h-18.5v2.6H148v1h-15.8v6.2h18.5v-2.6h-15.8v-1.1H150.7z M147.9,21.8h2.8V8.2h-2.8v5h-4.7V16h4.7V21.8z
	 M135.1,15.2c1.6,3.1,4.8,4.8,7.9,6l0.9-2.7c-5.6-2.4-7.3-3.9-7.2-10.2h-3c0,6.4-1.5,7.8-7.2,10.2l0.8,2.7
	C130.3,20,133.6,18.3,135.1,15.2L135.1,15.2z M108.5,23.9h-2.8V32h18.5v-2.8h-15.7L108.5,23.9z M121.5,26.2h2.8V8.2h-2.8v5h-4.3V16
	h4.3V26.2z M114.8,16.4c2-3.1,1.9-7.7,1.9-7.7h-13.2v2.8h10c-0.1,0.7-0.2,1.3-0.4,1.9c-0.5,1.4-1.3,2.6-2.5,3.6
	c-2.5,2.1-5.6,3.3-8.8,3.6l0.9,2.8c3-0.4,6-1.5,8.4-3.3C112.5,19.2,113.8,17.9,114.8,16.4L114.8,16.4z M81.5,15.4
	c-5.5,1.8-4.7,6.5,0.6,7.8c3.1,0.9,9.9,0,9.9-4.2C91.3,14.9,84.7,14.3,81.5,15.4L81.5,15.4z M88,20.4c-1.7,0.6-3.6,0.7-5.4,0.3
	c-3.1-0.7-3.1-2.3,0-3c1.8-0.4,3.7-0.3,5.4,0.3c0.6,0.2,1.4,0.5,1.4,1.2S88.5,20.2,88,20.4L88,20.4z"/>
</svg>
