<svg id="레이어_1" data-name="레이어 1" xmlns="http://www.w3.org/2000/svg" viewBox="0 0 150.72 40.32"><defs><style>.cls-1{fill:#ffffff;}</style></defs><path class="cls-1" d="M20.76,0C9.29,0,0,9,0,20.15s9.3,20.16,20.77,20.16,20.77-9,20.77-20.16S32.23,0,20.76,0ZM31.39,27.38V16.71L23.21,7.58V33a16.41,16.41,0,0,1-1.71.42V9.51l-1.67,1.91-.07,22.22q-.74.06-1.5.06h-.14V13.26l-1.67,1.91L16.37,33.6c-.52-.06-1-.14-1.55-.25V16.93l-1.67,1.91-.07,14.05A16.06,16.06,0,0,1,1.78,17.7a16.25,16.25,0,0,1,16.48-16,16.25,16.25,0,0,1,16.49,16A15.61,15.61,0,0,1,31.39,27.38ZM69.12,15.49H64.85v2.8h4.27V32.08h2.81V8.27H69.12ZM59,8.49H55.9c0,7.2.24,12.35-7.72,15l.87,2.73a13.58,13.58,0,0,0,8.37-6.51A14,14,0,0,0,65.8,26.2l.87-2.73L65.44,23C58.51,20.36,59,14.78,59,8.49Zm36.32,23.6h2.8V8.23h-2.8ZM75.65,25.65v2.58c3.66-.13,15.22.38,18.65-.52l0-2.58C90.73,26,79.43,25.53,75.65,25.65ZM91.73,11.8H77.5v2.35H91.73ZM89.48,8.74H79.75v2.35h9.73Zm61.23,19.68V22.23H132.19V24.8H148v1.05H132.19v6.22h18.52V29.51H134.88V28.42Zm-2.8-6.62h2.8V8.22h-2.8v5h-4.66V16h4.66Zm-12.79-6.6c1.56,3.08,4.77,4.82,7.87,6l.88-2.71c-5.63-2.37-7.34-3.94-7.21-10.25h-3c0,6.38-1.52,7.8-7.21,10.25l.85,2.74C130.34,20,133.58,18.31,135.12,15.2Zm-26.59,8.7h-2.81V32h18.52V29.23H108.53Zm12.91,2.25h2.8V8.21h-2.8v5h-4.28V16h4.28Zm-6.68-9.74c2-3.13,1.92-7.67,1.92-7.67H103.46v2.79h10a9.3,9.3,0,0,1-.45,1.92,8.36,8.36,0,0,1-2.48,3.6,15.8,15.8,0,0,1-8.84,3.61l.86,2.76A18.33,18.33,0,0,0,111,20.13,13.4,13.4,0,0,0,114.76,16.41Zm-33.29-1c-5.5,1.8-4.67,6.49.62,7.75,3.1.92,9.91,0,9.87-4.19C91.25,14.92,84.67,14.32,81.47,15.42Zm6.51,5a10.24,10.24,0,0,1-5.38.26c-3.08-.69-3.09-2.29,0-3A10.24,10.24,0,0,1,88,18c.55.24,1.36.55,1.42,1.23S88.53,20.2,88,20.44Z" transform="translate(0.01 0.01)"/></svg>